<svg width="776" height="913" viewBox="0 0 776 913" fill="none" xmlns="http://www.w3.org/2000/svg">
<g opacity="0.2">
<path d="M-29.04 275.219L-26.9017 414.813L82.2586 480.005L-29.04 275.219Z" stroke="#4E4E4E" stroke-linecap="round"/>
<path d="M80.2979 480.383L-28.8416 416.559L-137.941 483.726L80.2979 480.383Z" stroke="#4E4E4E" stroke-linecap="round"/>
<path d="M225.306 271.323L227.444 410.917L336.605 476.109L225.306 271.323Z" stroke="#4E4E4E" stroke-linecap="round"/>
<path d="M221.374 271.383L223.512 410.977L112.468 479.542L221.374 271.383Z" stroke="#4E4E4E" stroke-linecap="round"/>
<path d="M334.644 476.487L225.504 412.663L116.405 479.83L334.644 476.487Z" stroke="#4E4E4E" stroke-linecap="round"/>
<path d="M98.8555 489.583L100.994 629.177L210.154 694.369L98.8555 489.583Z" stroke="#4E4E4E" stroke-linecap="round"/>
<path d="M94.9233 489.643L97.0616 629.238L-13.9829 697.802L94.9233 489.643Z" stroke="#4E4E4E" stroke-linecap="round"/>
<path d="M208.193 694.747L99.0538 630.923L-10.0453 698.09L208.193 694.747Z" stroke="#4E4E4E" stroke-linecap="round"/>
<path d="M671.047 564.305L614.455 691.931L686.22 796.887L671.047 564.305Z" stroke="#4E4E4E" stroke-linecap="round"/>
<path d="M667.452 562.711L610.86 690.337L481.299 706.021L667.452 562.711Z" stroke="#4E4E4E" stroke-linecap="round"/>
<path d="M684.281 796.409L611.962 692.703L484.753 707.934L684.281 796.409Z" stroke="#4E4E4E" stroke-linecap="round"/>
<path d="M385.919 606.959L388.058 746.553L497.218 811.745L385.919 606.959Z" stroke="#4E4E4E" stroke-linecap="round"/>
<path d="M381.987 607.02L384.125 746.614L273.081 815.178L381.987 607.02Z" stroke="#4E4E4E" stroke-linecap="round"/>
<path d="M495.257 812.124L386.118 748.299L277.018 815.467L495.257 812.124Z" stroke="#4E4E4E" stroke-linecap="round"/>
<path d="M94.7784 480.188L92.6401 340.594L-16.5202 275.402L94.7784 480.188Z" stroke="#4E4E4E" stroke-linecap="round"/>
<path d="M98.7106 480.128L96.5723 340.534L207.617 271.969L98.7106 480.128Z" stroke="#4E4E4E" stroke-linecap="round"/>
<path d="M-14.5594 275.024L94.5801 338.848L203.679 271.681L-14.5594 275.024Z" stroke="#4E4E4E" stroke-linecap="round"/>
<path d="M-27.74 698.388L-29.8783 558.794L81.1661 490.229L-27.74 698.388Z" stroke="#4E4E4E" stroke-linecap="round"/>
<path d="M-141.01 493.284L-31.8706 557.108L77.2285 489.941L-141.01 493.284Z" stroke="#4E4E4E" stroke-linecap="round"/>
<path d="M412.519 314.255L328.234 202.957L201.656 214.95L412.519 314.255Z" stroke="#4E4E4E" stroke-linecap="round"/>
<path d="M415.654 311.881L331.37 200.583L380.36 79.6207L415.654 311.881Z" stroke="#4E4E4E" stroke-linecap="round"/>
<path d="M203.013 213.485L328.766 200.402L377.014 81.7169L203.013 213.485Z" stroke="#4E4E4E" stroke-linecap="round"/>
<path d="M222.674 694.552L220.536 554.958L111.375 489.766L222.674 694.552Z" stroke="#4E4E4E" stroke-linecap="round"/>
<path d="M226.606 694.492L224.468 554.898L335.512 486.333L226.606 694.492Z" stroke="#4E4E4E" stroke-linecap="round"/>
<path d="M113.336 489.388L222.476 553.212L331.575 486.045L113.336 489.388Z" stroke="#4E4E4E" stroke-linecap="round"/>
<path d="M557.358 314.759L555.22 175.165L446.059 109.973L557.358 314.759Z" stroke="#4E4E4E" stroke-linecap="round"/>
<path d="M561.29 314.698L559.152 175.104L670.196 106.54L561.29 314.698Z" stroke="#4E4E4E" stroke-linecap="round"/>
<path d="M448.02 109.595L557.16 173.419L666.259 106.252L448.02 109.595Z" stroke="#4E4E4E" stroke-linecap="round"/>
<path d="M476.826 604.744L512.523 469.774L425.064 377.488L476.826 604.744Z" stroke="#4E4E4E" stroke-linecap="round"/>
<path d="M480.628 605.75L516.325 470.78L641.776 434.805L480.628 605.75Z" stroke="#4E4E4E" stroke-linecap="round"/>
<path d="M427.054 377.654L514.863 468.619L638.063 433.463L427.054 377.654Z" stroke="#4E4E4E" stroke-linecap="round"/>
</g>
</svg>
