<svg width="2854" height="4009" viewBox="0 0 2854 4009" fill="none" xmlns="http://www.w3.org/2000/svg">
<g opacity="0.2">
<path d="M340.831 195.879L342.356 295.423L420.198 341.911L340.831 195.879Z" stroke="#4E4E4E" stroke-linecap="round"/>
<path d="M338.027 195.922L339.552 295.466L260.366 344.359L338.027 195.922Z" stroke="#4E4E4E" stroke-linecap="round"/>
<path d="M418.799 342.181L340.973 296.668L263.175 344.565L418.799 342.181Z" stroke="#4E4E4E" stroke-linecap="round"/>
<path d="M522.203 193.101L523.728 292.645L601.57 339.133L522.203 193.101Z" stroke="#4E4E4E" stroke-linecap="round"/>
<path d="M519.399 193.144L520.924 292.688L441.739 341.581L519.399 193.144Z" stroke="#4E4E4E" stroke-linecap="round"/>
<path d="M600.172 339.403L522.345 293.89L444.547 341.787L600.172 339.403Z" stroke="#4E4E4E" stroke-linecap="round"/>
<path d="M432.033 348.741L433.558 448.285L511.399 494.773L432.033 348.741Z" stroke="#4E4E4E" stroke-linecap="round"/>
<path d="M429.229 348.784L430.753 448.328L351.568 497.221L429.229 348.784Z" stroke="#4E4E4E" stroke-linecap="round"/>
<path d="M510.001 495.043L432.174 449.53L354.376 497.427L510.001 495.043Z" stroke="#4E4E4E" stroke-linecap="round"/>
<path d="M840.06 402.025L799.704 493.035L850.879 567.878L840.06 402.025Z" stroke="#4E4E4E" stroke-linecap="round"/>
<path d="M837.496 400.888L797.141 491.898L704.752 503.082L837.496 400.888Z" stroke="#4E4E4E" stroke-linecap="round"/>
<path d="M849.497 567.537L797.926 493.585L707.214 504.446L849.497 567.537Z" stroke="#4E4E4E" stroke-linecap="round"/>
<path d="M636.736 432.442L638.261 531.986L716.103 578.473L636.736 432.442Z" stroke="#4E4E4E" stroke-linecap="round"/>
<path d="M633.932 432.485L635.457 532.028L556.272 580.922L633.932 432.485Z" stroke="#4E4E4E" stroke-linecap="round"/>
<path d="M714.705 578.743L636.878 533.23L559.08 581.127L714.705 578.743Z" stroke="#4E4E4E" stroke-linecap="round"/>
<path d="M429.125 342.042L427.601 242.498L349.759 196.01L429.125 342.042Z" stroke="#4E4E4E" stroke-linecap="round"/>
<path d="M431.93 341.999L430.405 242.455L509.59 193.562L431.93 341.999Z" stroke="#4E4E4E" stroke-linecap="round"/>
<path d="M351.157 195.74L428.984 241.253L506.782 193.356L351.157 195.74Z" stroke="#4E4E4E" stroke-linecap="round"/>
<path d="M338.954 497.682L337.429 398.138L259.587 351.65L338.954 497.682Z" stroke="#4E4E4E" stroke-linecap="round"/>
<path d="M341.758 497.639L340.233 398.095L419.419 349.202L341.758 497.639Z" stroke="#4E4E4E" stroke-linecap="round"/>
<path d="M260.986 351.38L338.813 396.893L416.611 348.996L260.986 351.38Z" stroke="#4E4E4E" stroke-linecap="round"/>
<path d="M655.705 223.716L595.602 144.35L505.34 152.902L655.705 223.716Z" stroke="#4E4E4E" stroke-linecap="round"/>
<path d="M657.94 222.023L597.837 142.657L632.772 56.3992L657.94 222.023Z" stroke="#4E4E4E" stroke-linecap="round"/>
<path d="M506.307 151.857L595.981 142.528L630.387 57.8939L506.307 151.857Z" stroke="#4E4E4E" stroke-linecap="round"/>
<path d="M520.327 494.904L518.802 395.36L440.961 348.872L520.327 494.904Z" stroke="#4E4E4E" stroke-linecap="round"/>
<path d="M523.131 494.861L521.606 395.317L600.791 346.424L523.131 494.861Z" stroke="#4E4E4E" stroke-linecap="round"/>
<path d="M442.359 348.602L520.186 394.115L597.984 346.218L442.359 348.602Z" stroke="#4E4E4E" stroke-linecap="round"/>
<path d="M758.989 224.075L757.464 124.531L679.622 78.0433L758.989 224.075Z" stroke="#4E4E4E" stroke-linecap="round"/>
<path d="M761.792 224.032L760.268 124.488L839.453 75.5951L761.792 224.032Z" stroke="#4E4E4E" stroke-linecap="round"/>
<path d="M681.02 77.7734L758.847 123.286L836.645 75.3895L681.02 77.7734Z" stroke="#4E4E4E" stroke-linecap="round"/>
<path d="M701.561 430.862L727.017 334.616L664.65 268.807L701.561 430.862Z" stroke="#4E4E4E" stroke-linecap="round"/>
<path d="M704.272 431.579L729.728 335.333L819.186 309.68L704.272 431.579Z" stroke="#4E4E4E" stroke-linecap="round"/>
<path d="M666.069 268.925L728.686 333.792L816.539 308.722L666.069 268.925Z" stroke="#4E4E4E" stroke-linecap="round"/>
</g>
<g opacity="0.2">
<path d="M1847.81 823.021L1914.69 749.275L1889.59 662.152L1847.81 823.021Z" stroke="#8E8E8E" stroke-linecap="round"/>
<path d="M1849.89 824.905L1916.77 751.159L2008 769.535L1849.89 824.905Z" stroke="#8E8E8E" stroke-linecap="round"/>
<path d="M1890.79 662.91L1916.55 749.31L2006.09 767.466L1890.79 662.91Z" stroke="#8E8E8E" stroke-linecap="round"/>
<path d="M1713.44 701.166L1780.32 627.42L1755.22 540.297L1713.44 701.166Z" stroke="#8E8E8E" stroke-linecap="round"/>
<path d="M1715.52 703.05L1782.4 629.303L1873.63 647.679L1715.52 703.05Z" stroke="#8E8E8E" stroke-linecap="round"/>
<path d="M1756.42 541.055L1782.18 627.455L1871.72 645.611L1756.42 541.055Z" stroke="#8E8E8E" stroke-linecap="round"/>
<path d="M1885.61 649.079L1952.49 575.333L1927.39 488.21L1885.61 649.079Z" stroke="#8E8E8E" stroke-linecap="round"/>
<path d="M1887.69 650.963L1954.57 577.217L2045.8 595.593L1887.69 650.963Z" stroke="#8E8E8E" stroke-linecap="round"/>
<path d="M1928.59 488.968L1954.35 575.369L2043.89 593.525L1928.59 488.968Z" stroke="#8E8E8E" stroke-linecap="round"/>
<path d="M1623.99 331.464L1715.63 292.556L1729.37 202.937L1623.99 331.464Z" stroke="#8E8E8E" stroke-linecap="round"/>
<path d="M1625.08 334.045L1716.72 295.138L1791.84 350.074L1625.08 334.045Z" stroke="#8E8E8E" stroke-linecap="round"/>
<path d="M1730.15 204.131L1717.3 293.369L1790.97 347.396L1730.15 204.131Z" stroke="#8E8E8E" stroke-linecap="round"/>
<path d="M1793.27 448.126L1860.15 374.379L1835.05 287.256L1793.27 448.126Z" stroke="#8E8E8E" stroke-linecap="round"/>
<path d="M1795.35 450.01L1862.22 376.263L1953.46 394.639L1795.35 450.01Z" stroke="#8E8E8E" stroke-linecap="round"/>
<path d="M1836.25 288.014L1862.01 374.415L1951.54 392.571L1836.25 288.014Z" stroke="#8E8E8E" stroke-linecap="round"/>
<path d="M1883.16 655.959L1816.28 729.705L1841.38 816.828L1883.16 655.959Z" stroke="#8E8E8E" stroke-linecap="round"/>
<path d="M1881.08 654.075L1814.2 727.822L1722.97 709.446L1881.08 654.075Z" stroke="#8E8E8E" stroke-linecap="round"/>
<path d="M1840.17 816.07L1814.42 729.67L1724.88 711.514L1840.17 816.07Z" stroke="#8E8E8E" stroke-linecap="round"/>
<path d="M2055.32 603.872L1988.45 677.619L2013.55 764.741L2055.32 603.872Z" stroke="#8E8E8E" stroke-linecap="round"/>
<path d="M2053.25 601.988L1986.37 675.735L1895.14 657.359L2053.25 601.988Z" stroke="#8E8E8E" stroke-linecap="round"/>
<path d="M2012.34 763.984L1986.59 677.583L1897.05 659.427L2012.34 763.984Z" stroke="#8E8E8E" stroke-linecap="round"/>
<path d="M1636.85 587.62L1626.53 686.64L1698.3 742.046L1636.85 587.62Z" stroke="#8E8E8E" stroke-linecap="round"/>
<path d="M1634.06 587.329L1623.75 686.349L1539.31 725.489L1634.06 587.329Z" stroke="#8E8E8E" stroke-linecap="round"/>
<path d="M1696.88 742.148L1625.01 687.712L1542.08 726.027L1696.88 742.148Z" stroke="#8E8E8E" stroke-linecap="round"/>
<path d="M1920.96 482.017L1854.08 555.763L1879.18 642.886L1920.96 482.017Z" stroke="#8E8E8E" stroke-linecap="round"/>
<path d="M1918.88 480.133L1852 553.879L1760.77 535.504L1918.88 480.133Z" stroke="#8E8E8E" stroke-linecap="round"/>
<path d="M1877.97 642.128L1852.22 555.728L1762.68 537.572L1877.97 642.128Z" stroke="#8E8E8E" stroke-linecap="round"/>
<path d="M1561.65 516.811L1494.78 590.557L1519.88 677.68L1561.65 516.811Z" stroke="#8E8E8E" stroke-linecap="round"/>
<path d="M1559.58 514.927L1492.7 588.674L1401.47 570.298L1559.58 514.927Z" stroke="#8E8E8E" stroke-linecap="round"/>
<path d="M1518.67 676.922L1492.92 590.522L1403.38 572.366L1518.67 676.922Z" stroke="#8E8E8E" stroke-linecap="round"/>
<path d="M1744.84 405.002L1660.51 457.911L1661.11 548.576L1744.84 405.002Z" stroke="#8E8E8E" stroke-linecap="round"/>
<path d="M1743.35 402.626L1659.02 455.536L1576.16 413.169L1743.35 402.626Z" stroke="#8E8E8E" stroke-linecap="round"/>
<path d="M1660.16 547.52L1658.73 457.373L1577.44 415.677L1660.16 547.52Z" stroke="#8E8E8E" stroke-linecap="round"/>
</g>
<g opacity="0.2">
<path d="M2043.69 1776.25L2121.2 1690.78L2092.1 1589.8L2043.69 1776.25Z" stroke="white" stroke-width="5" stroke-linecap="round"/>
<path d="M2046.09 1778.43L2123.6 1692.96L2229.34 1714.26L2046.09 1778.43Z" stroke="white" stroke-width="5" stroke-linecap="round"/>
<path d="M2093.5 1590.68L2123.35 1690.82L2227.13 1711.86L2093.5 1590.68Z" stroke="white" stroke-width="5" stroke-linecap="round"/>
<path d="M1887.95 1635.02L1965.46 1549.55L1936.37 1448.57L1887.95 1635.02Z" stroke="white" stroke-width="5" stroke-linecap="round"/>
<path d="M1890.36 1637.2L1967.87 1551.73L2073.61 1573.03L1890.36 1637.2Z" stroke="white" stroke-width="5" stroke-linecap="round"/>
<path d="M1937.77 1449.45L1967.62 1549.59L2071.39 1570.63L1937.77 1449.45Z" stroke="white" stroke-width="5" stroke-linecap="round"/>
<path d="M2087.49 1574.65L2165.01 1489.18L2135.91 1388.2L2087.49 1574.65Z" stroke="white" stroke-width="5" stroke-linecap="round"/>
<path d="M2089.9 1576.83L2167.41 1491.36L2273.15 1512.66L2089.9 1576.83Z" stroke="white" stroke-width="5" stroke-linecap="round"/>
<path d="M2137.31 1389.08L2167.16 1489.22L2270.94 1510.26L2137.31 1389.08Z" stroke="white" stroke-width="5" stroke-linecap="round"/>
<path d="M1784.27 1206.53L1890.48 1161.44L1906.41 1057.57L1784.27 1206.53Z" stroke="white" stroke-width="5" stroke-linecap="round"/>
<path d="M1785.54 1209.53L1891.75 1164.43L1978.82 1228.1L1785.54 1209.53Z" stroke="white" stroke-width="5" stroke-linecap="round"/>
<path d="M1907.31 1058.95L1892.42 1162.38L1977.81 1225L1907.31 1058.95Z" stroke="white" stroke-width="5" stroke-linecap="round"/>
<path d="M1980.47 1341.75L2057.98 1256.27L2028.89 1155.3L1980.47 1341.75Z" stroke="white" stroke-width="5" stroke-linecap="round"/>
<path d="M1982.88 1343.93L2060.39 1258.46L2166.13 1279.75L1982.88 1343.93Z" stroke="white" stroke-width="5" stroke-linecap="round"/>
<path d="M2030.29 1156.18L2060.14 1256.31L2163.91 1277.36L2030.29 1156.18Z" stroke="white" stroke-width="5" stroke-linecap="round"/>
<path d="M2084.65 1582.62L2007.14 1668.1L2036.23 1769.07L2084.65 1582.62Z" stroke="white" stroke-width="5" stroke-linecap="round"/>
<path d="M2082.24 1580.44L2004.73 1665.91L1898.99 1644.62L2082.24 1580.44Z" stroke="white" stroke-width="5" stroke-linecap="round"/>
<path d="M2034.83 1768.19L2004.98 1668.06L1901.21 1647.01L2034.83 1768.19Z" stroke="white" stroke-width="5" stroke-linecap="round"/>
<path d="M2284.19 1522.26L2206.68 1607.73L2235.77 1708.7L2284.19 1522.26Z" stroke="white" stroke-width="5" stroke-linecap="round"/>
<path d="M2281.79 1520.07L2204.27 1605.55L2098.54 1584.25L2281.79 1520.07Z" stroke="white" stroke-width="5" stroke-linecap="round"/>
<path d="M2234.38 1707.83L2204.53 1607.69L2100.75 1586.64L2234.38 1707.83Z" stroke="white" stroke-width="5" stroke-linecap="round"/>
<path d="M1799.18 1503.42L1787.22 1618.18L1870.4 1682.4L1799.18 1503.42Z" stroke="white" stroke-width="5" stroke-linecap="round"/>
<path d="M1795.94 1503.08L1783.99 1617.85L1686.13 1663.21L1795.94 1503.08Z" stroke="white" stroke-width="5" stroke-linecap="round"/>
<path d="M1868.76 1682.52L1785.46 1619.43L1689.34 1663.83L1868.76 1682.52Z" stroke="white" stroke-width="5" stroke-linecap="round"/>
<path d="M2128.46 1381.02L2050.95 1466.5L2080.04 1567.47L2128.46 1381.02Z" stroke="white" stroke-width="5" stroke-linecap="round"/>
<path d="M2126.05 1378.84L2048.54 1464.31L1942.8 1443.02L2126.05 1378.84Z" stroke="white" stroke-width="5" stroke-linecap="round"/>
<path d="M2078.64 1566.59L2048.79 1466.46L1945.02 1445.41L2078.64 1566.59Z" stroke="white" stroke-width="5" stroke-linecap="round"/>
<path d="M1712.03 1421.35L1634.52 1506.82L1663.61 1607.8L1712.03 1421.35Z" stroke="white" stroke-width="5" stroke-linecap="round"/>
<path d="M1709.62 1419.17L1632.11 1504.64L1526.37 1483.34L1709.62 1419.17Z" stroke="white" stroke-width="5" stroke-linecap="round"/>
<path d="M1662.21 1606.92L1632.36 1506.78L1528.58 1485.74L1662.21 1606.92Z" stroke="white" stroke-width="5" stroke-linecap="round"/>
<path d="M1924.34 1291.76L1826.6 1353.09L1827.3 1458.17L1924.34 1291.76Z" stroke="white" stroke-width="5" stroke-linecap="round"/>
<path d="M1922.62 1289.01L1824.87 1350.33L1728.84 1301.23L1922.62 1289.01Z" stroke="white" stroke-width="5" stroke-linecap="round"/>
<path d="M1826.19 1456.94L1824.54 1352.46L1730.32 1304.14L1826.19 1456.94Z" stroke="white" stroke-width="5" stroke-linecap="round"/>
</g>
<g opacity="0.2">
<path d="M2191.77 3656.55L2312.34 3523.6L2267.09 3366.54L2191.77 3656.55Z" stroke="#474747" stroke-width="5" stroke-linecap="round"/>
<path d="M2195.52 3659.95L2316.09 3527L2480.56 3560.12L2195.52 3659.95Z" stroke="#474747" stroke-width="5" stroke-linecap="round"/>
<path d="M2269.26 3367.9L2315.7 3523.66L2477.12 3556.4L2269.26 3367.9Z" stroke="#474747" stroke-width="5" stroke-linecap="round"/>
<path d="M1949.53 3436.87L2070.1 3303.92L2024.85 3146.85L1949.53 3436.87Z" stroke="#474747" stroke-width="5" stroke-linecap="round"/>
<path d="M1953.28 3440.27L2073.85 3307.32L2238.32 3340.44L1953.28 3440.27Z" stroke="#474747" stroke-width="5" stroke-linecap="round"/>
<path d="M2027.02 3148.22L2073.46 3303.98L2234.88 3336.72L2027.02 3148.22Z" stroke="#474747" stroke-width="5" stroke-linecap="round"/>
<path d="M2259.92 3342.97L2380.49 3210.02L2335.23 3052.95L2259.92 3342.97Z" stroke="#474747" stroke-width="5" stroke-linecap="round"/>
<path d="M2263.66 3346.36L2384.23 3213.41L2548.7 3246.54L2263.66 3346.36Z" stroke="#474747" stroke-width="5" stroke-linecap="round"/>
<path d="M2337.41 3054.32L2383.84 3210.08L2545.26 3242.81L2337.41 3054.32Z" stroke="#474747" stroke-width="5" stroke-linecap="round"/>
<path d="M1788.27 2770.37L1953.47 2700.23L1978.25 2538.66L1788.27 2770.37Z" stroke="#474747" stroke-width="5" stroke-linecap="round"/>
<path d="M1790.24 2775.02L1955.45 2704.88L2090.87 2803.92L1790.24 2775.02Z" stroke="#474747" stroke-width="5" stroke-linecap="round"/>
<path d="M1979.65 2540.81L1956.49 2701.69L2089.31 2799.09L1979.65 2540.81Z" stroke="#474747" stroke-width="5" stroke-linecap="round"/>
<path d="M2093.44 2980.69L2214.01 2847.74L2168.76 2690.67L2093.44 2980.69Z" stroke="#474747" stroke-width="5" stroke-linecap="round"/>
<path d="M2097.19 2984.08L2217.76 2851.13L2382.23 2884.26L2097.19 2984.08Z" stroke="#474747" stroke-width="5" stroke-linecap="round"/>
<path d="M2170.93 2692.04L2217.37 2847.8L2378.79 2880.53L2170.93 2692.04Z" stroke="#474747" stroke-width="5" stroke-linecap="round"/>
<path d="M2255.5 3355.37L2134.93 3488.32L2180.18 3645.39L2255.5 3355.37Z" stroke="#474747" stroke-width="5" stroke-linecap="round"/>
<path d="M2251.75 3351.97L2131.18 3484.92L1966.71 3451.8L2251.75 3351.97Z" stroke="#474747" stroke-width="5" stroke-linecap="round"/>
<path d="M2178.01 3644.02L2131.57 3488.26L1970.15 3455.52L2178.01 3644.02Z" stroke="#474747" stroke-width="5" stroke-linecap="round"/>
<path d="M2565.88 3261.47L2445.31 3394.42L2490.57 3551.48L2565.88 3261.47Z" stroke="#474747" stroke-width="5" stroke-linecap="round"/>
<path d="M2562.14 3258.07L2441.57 3391.02L2277.1 3357.89L2562.14 3258.07Z" stroke="#474747" stroke-width="5" stroke-linecap="round"/>
<path d="M2488.39 3550.12L2441.96 3394.35L2280.54 3361.62L2488.39 3550.12Z" stroke="#474747" stroke-width="5" stroke-linecap="round"/>
<path d="M1811.45 3232.17L1792.86 3410.68L1922.24 3510.57L1811.45 3232.17Z" stroke="#474747" stroke-width="5" stroke-linecap="round"/>
<path d="M1806.42 3231.64L1787.83 3410.16L1635.61 3480.72L1806.42 3231.64Z" stroke="#474747" stroke-width="5" stroke-linecap="round"/>
<path d="M1919.68 3510.75L1790.11 3412.61L1640.59 3481.69L1919.68 3510.75Z" stroke="#474747" stroke-width="5" stroke-linecap="round"/>
<path d="M2323.64 3041.79L2203.07 3174.74L2248.32 3331.8L2323.64 3041.79Z" stroke="#474747" stroke-width="5" stroke-linecap="round"/>
<path d="M2319.89 3038.39L2199.32 3171.34L2034.85 3138.21L2319.89 3038.39Z" stroke="#474747" stroke-width="5" stroke-linecap="round"/>
<path d="M2246.15 3330.44L2199.72 3174.67L2038.3 3141.94L2246.15 3330.44Z" stroke="#474747" stroke-width="5" stroke-linecap="round"/>
<path d="M1675.89 3104.51L1555.32 3237.46L1600.57 3394.53L1675.89 3104.51Z" stroke="#474747" stroke-width="5" stroke-linecap="round"/>
<path d="M1672.15 3101.12L1551.58 3234.07L1387.1 3200.94L1672.15 3101.12Z" stroke="#474747" stroke-width="5" stroke-linecap="round"/>
<path d="M1598.4 3393.16L1551.97 3237.4L1390.55 3204.67L1598.4 3393.16Z" stroke="#474747" stroke-width="5" stroke-linecap="round"/>
<path d="M2006.14 2902.94L1854.11 2998.33L1855.19 3161.78L2006.14 2902.94Z" stroke="#474747" stroke-width="5" stroke-linecap="round"/>
<path d="M2003.45 2898.66L1851.42 2994.05L1702.04 2917.67L2003.45 2898.66Z" stroke="#474747" stroke-width="5" stroke-linecap="round"/>
<path d="M1853.47 3159.88L1850.89 2997.36L1704.35 2922.19L1853.47 3159.88Z" stroke="#474747" stroke-width="5" stroke-linecap="round"/>
</g>
<g opacity="0.2">
<path d="M545.701 1382.8L612.579 1309.05L587.478 1221.93L545.701 1382.8Z" stroke="white" stroke-width="3" stroke-linecap="round"/>
<path d="M547.778 1384.68L614.657 1310.94L705.888 1329.31L547.778 1384.68Z" stroke="white" stroke-width="3" stroke-linecap="round"/>
<path d="M588.683 1222.69L614.44 1309.09L703.978 1327.25L588.683 1222.69Z" stroke="white" stroke-width="3" stroke-linecap="round"/>
<path d="M411.331 1260.95L478.209 1187.2L453.108 1100.08L411.331 1260.95Z" stroke="white" stroke-width="3" stroke-linecap="round"/>
<path d="M413.409 1262.83L480.287 1189.08L571.518 1207.46L413.409 1262.83Z" stroke="white" stroke-width="3" stroke-linecap="round"/>
<path d="M454.314 1100.83L480.07 1187.23L569.608 1205.39L454.314 1100.83Z" stroke="white" stroke-width="3" stroke-linecap="round"/>
<path d="M583.499 1208.86L650.377 1135.11L625.276 1047.99L583.499 1208.86Z" stroke="white" stroke-width="3" stroke-linecap="round"/>
<path d="M585.576 1210.74L652.455 1137L743.686 1155.37L585.576 1210.74Z" stroke="white" stroke-width="3" stroke-linecap="round"/>
<path d="M626.482 1048.75L652.238 1135.15L741.776 1153.3L626.482 1048.75Z" stroke="white" stroke-width="3" stroke-linecap="round"/>
<path d="M321.878 891.244L413.516 852.336L427.259 762.717L321.878 891.244Z" stroke="white" stroke-width="3" stroke-linecap="round"/>
<path d="M322.974 893.825L414.611 854.917L489.73 909.854L322.974 893.825Z" stroke="white" stroke-width="3" stroke-linecap="round"/>
<path d="M428.035 763.911L415.19 853.149L488.863 907.175L428.035 763.911Z" stroke="white" stroke-width="3" stroke-linecap="round"/>
<path d="M491.157 1007.91L558.036 934.159L532.934 847.036L491.157 1007.91Z" stroke="white" stroke-width="3" stroke-linecap="round"/>
<path d="M493.234 1009.79L560.113 936.043L651.344 954.418L493.234 1009.79Z" stroke="white" stroke-width="3" stroke-linecap="round"/>
<path d="M534.139 847.794L559.896 934.194L649.434 952.35L534.139 847.794Z" stroke="white" stroke-width="3" stroke-linecap="round"/>
<path d="M581.046 1215.74L514.167 1289.49L539.269 1376.61L581.046 1215.74Z" stroke="white" stroke-width="3" stroke-linecap="round"/>
<path d="M578.969 1213.85L512.09 1287.6L420.859 1269.23L578.969 1213.85Z" stroke="white" stroke-width="3" stroke-linecap="round"/>
<path d="M538.064 1375.85L512.307 1289.45L422.77 1271.29L538.064 1375.85Z" stroke="white" stroke-width="3" stroke-linecap="round"/>
<path d="M753.213 1163.65L686.335 1237.4L711.436 1324.52L753.213 1163.65Z" stroke="white" stroke-width="3" stroke-linecap="round"/>
<path d="M751.136 1161.77L684.258 1235.51L593.026 1217.14L751.136 1161.77Z" stroke="white" stroke-width="3" stroke-linecap="round"/>
<path d="M710.231 1323.76L684.475 1237.36L594.937 1219.21L710.231 1323.76Z" stroke="white" stroke-width="3" stroke-linecap="round"/>
<path d="M334.735 1147.4L324.423 1246.42L396.191 1301.83L334.735 1147.4Z" stroke="white" stroke-width="3" stroke-linecap="round"/>
<path d="M331.946 1147.11L321.634 1246.13L237.201 1285.27L331.946 1147.11Z" stroke="white" stroke-width="3" stroke-linecap="round"/>
<path d="M394.771 1301.93L322.902 1247.49L239.965 1285.81L394.771 1301.93Z" stroke="white" stroke-width="3" stroke-linecap="round"/>
<path d="M618.844 1041.8L551.966 1115.54L577.067 1202.67L618.844 1041.8Z" stroke="white" stroke-width="3" stroke-linecap="round"/>
<path d="M616.767 1039.91L549.889 1113.66L458.657 1095.28L616.767 1039.91Z" stroke="white" stroke-width="3" stroke-linecap="round"/>
<path d="M575.861 1201.91L550.105 1115.51L460.567 1097.35L575.861 1201.91Z" stroke="white" stroke-width="3" stroke-linecap="round"/>
<path d="M259.544 1076.59L192.666 1150.34L217.767 1237.46L259.544 1076.59Z" stroke="white" stroke-width="3" stroke-linecap="round"/>
<path d="M257.467 1074.71L190.588 1148.45L99.357 1130.08L257.467 1074.71Z" stroke="white" stroke-width="3" stroke-linecap="round"/>
<path d="M216.561 1236.7L190.805 1150.3L101.267 1132.15L216.561 1236.7Z" stroke="white" stroke-width="3" stroke-linecap="round"/>
<path d="M442.731 964.781L358.399 1017.69L359 1108.36L442.731 964.781Z" stroke="white" stroke-width="3" stroke-linecap="round"/>
<path d="M441.241 962.406L356.909 1015.32L274.048 972.949L441.241 962.406Z" stroke="white" stroke-width="3" stroke-linecap="round"/>
<path d="M358.045 1107.3L356.618 1017.15L275.328 975.456L358.045 1107.3Z" stroke="white" stroke-width="3" stroke-linecap="round"/>
</g>
<g opacity="0.2">
<path d="M546.414 2428.2L613.293 2354.45L588.191 2267.33L546.414 2428.2Z" stroke="#474747" stroke-width="3" stroke-linecap="round"/>
<path d="M548.491 2430.08L615.37 2356.34L706.601 2374.71L548.491 2430.08Z" stroke="#474747" stroke-width="3" stroke-linecap="round"/>
<path d="M589.396 2268.09L615.153 2354.49L704.69 2372.64L589.396 2268.09Z" stroke="#474747" stroke-width="3" stroke-linecap="round"/>
<path d="M412.044 2306.34L478.923 2232.6L453.822 2145.47L412.044 2306.34Z" stroke="#474747" stroke-width="3" stroke-linecap="round"/>
<path d="M414.122 2308.23L481 2234.48L572.231 2252.86L414.122 2308.23Z" stroke="#474747" stroke-width="3" stroke-linecap="round"/>
<path d="M455.027 2146.23L480.783 2232.63L570.321 2250.79L455.027 2146.23Z" stroke="#474747" stroke-width="3" stroke-linecap="round"/>
<path d="M584.212 2254.26L651.09 2180.51L625.989 2093.39L584.212 2254.26Z" stroke="#474747" stroke-width="3" stroke-linecap="round"/>
<path d="M586.29 2256.14L653.168 2182.39L744.399 2200.77L586.29 2256.14Z" stroke="#474747" stroke-width="3" stroke-linecap="round"/>
<path d="M627.195 2094.14L652.951 2180.55L742.489 2198.7L627.195 2094.14Z" stroke="#474747" stroke-width="3" stroke-linecap="round"/>
<path d="M322.591 1936.64L414.229 1897.73L427.972 1808.11L322.591 1936.64Z" stroke="#474747" stroke-width="3" stroke-linecap="round"/>
<path d="M323.687 1939.22L415.324 1900.31L490.443 1955.25L323.687 1939.22Z" stroke="#474747" stroke-width="3" stroke-linecap="round"/>
<path d="M428.748 1809.31L415.903 1898.55L489.576 1952.57L428.748 1809.31Z" stroke="#474747" stroke-width="3" stroke-linecap="round"/>
<path d="M491.87 2053.3L558.749 1979.56L533.647 1892.43L491.87 2053.3Z" stroke="#474747" stroke-width="3" stroke-linecap="round"/>
<path d="M493.947 2055.19L560.826 1981.44L652.057 1999.82L493.947 2055.19Z" stroke="#474747" stroke-width="3" stroke-linecap="round"/>
<path d="M534.853 1893.19L560.609 1979.59L650.147 1997.75L534.853 1893.19Z" stroke="#474747" stroke-width="3" stroke-linecap="round"/>
<path d="M581.759 2261.14L514.88 2334.88L539.982 2422.01L581.759 2261.14Z" stroke="#474747" stroke-width="3" stroke-linecap="round"/>
<path d="M579.682 2259.25L512.803 2333L421.572 2314.62L579.682 2259.25Z" stroke="#474747" stroke-width="3" stroke-linecap="round"/>
<path d="M538.777 2421.25L513.02 2334.85L423.482 2316.69L538.777 2421.25Z" stroke="#474747" stroke-width="3" stroke-linecap="round"/>
<path d="M753.927 2209.05L687.048 2282.8L712.15 2369.92L753.927 2209.05Z" stroke="#474747" stroke-width="3" stroke-linecap="round"/>
<path d="M751.85 2207.17L684.971 2280.91L593.74 2262.54L751.85 2207.17Z" stroke="#474747" stroke-width="3" stroke-linecap="round"/>
<path d="M710.944 2369.16L685.188 2282.76L595.65 2264.6L710.944 2369.16Z" stroke="#474747" stroke-width="3" stroke-linecap="round"/>
<path d="M335.448 2192.8L325.136 2291.82L396.904 2347.22L335.448 2192.8Z" stroke="#474747" stroke-width="3" stroke-linecap="round"/>
<path d="M332.659 2192.51L322.347 2291.53L237.914 2330.67L332.659 2192.51Z" stroke="#474747" stroke-width="3" stroke-linecap="round"/>
<path d="M395.484 2347.32L323.615 2292.89L240.678 2331.2L395.484 2347.32Z" stroke="#474747" stroke-width="3" stroke-linecap="round"/>
<path d="M619.557 2087.19L552.679 2160.94L577.78 2248.06L619.557 2087.19Z" stroke="#474747" stroke-width="3" stroke-linecap="round"/>
<path d="M617.48 2085.31L550.602 2159.06L459.37 2140.68L617.48 2085.31Z" stroke="#474747" stroke-width="3" stroke-linecap="round"/>
<path d="M576.575 2247.31L550.818 2160.9L461.281 2142.75L576.575 2247.31Z" stroke="#474747" stroke-width="3" stroke-linecap="round"/>
<path d="M260.257 2121.99L193.378 2195.73L218.48 2282.86L260.257 2121.99Z" stroke="#474747" stroke-width="3" stroke-linecap="round"/>
<path d="M258.18 2120.1L191.301 2193.85L100.07 2175.47L258.18 2120.1Z" stroke="#474747" stroke-width="3" stroke-linecap="round"/>
<path d="M217.274 2282.1L191.518 2195.7L101.98 2177.54L217.274 2282.1Z" stroke="#474747" stroke-width="3" stroke-linecap="round"/>
<path d="M443.444 2010.18L359.112 2063.09L359.713 2153.75L443.444 2010.18Z" stroke="#474747" stroke-width="3" stroke-linecap="round"/>
<path d="M441.954 2007.8L357.622 2060.71L274.761 2018.35L441.954 2007.8Z" stroke="#474747" stroke-width="3" stroke-linecap="round"/>
<path d="M358.758 2152.7L357.33 2062.55L276.04 2020.85L358.758 2152.7Z" stroke="#474747" stroke-width="3" stroke-linecap="round"/>
</g>
</svg>
